<svg xmlns="http://www.w3.org/2000/svg" viewBox="0 0 1000 1000"><defs><style>.cls-1,.cls-5{fill:#fff;}.cls-2,.cls-3{fill:#e81f1f;}.cls-2,.cls-4,.cls-5{stroke:#fff;stroke-miterlimit:10;}.cls-2,.cls-4{stroke-width:1.19px;}.cls-4{fill:none;}.cls-5{stroke-width:1.67px;}</style></defs><title>gimmick-shelter-logo-blanc</title><g id="Calque_1" data-name="Calque 1"><circle class="cls-1" cx="500" cy="500" r="500"/></g><g id="Calque_2" data-name="Calque 2"><path class="cls-2" d="M153.83,650q3-.72,6.69-1.48c2.46-.51,5.07-1,7.84-1.49s5.62-.93,8.59-1.34,6-.7,9-.87,6-.2,9.05-.12a65.08,65.08,0,0,1,8.81.87,43.29,43.29,0,0,1,8.22,2.25,32.12,32.12,0,0,1,7.38,4.07,28.5,28.5,0,0,1,4.66,5.1,45.26,45.26,0,0,1,3.93,6.69,13.62,13.62,0,0,1,.77,7.5,17.17,17.17,0,0,1-3,6.89,27.74,27.74,0,0,1-5.94,5.91,42.38,42.38,0,0,1-7.89,4.55,17,17,0,0,1-4.5.85,43.28,43.28,0,0,1-7.73,0,59.64,59.64,0,0,1-9.33-1.55,58.57,58.57,0,0,1-9.7-3.27A40.2,40.2,0,0,1,173,679.9a22.56,22.56,0,0,1-5.72-6.35,15.89,15.89,0,0,1-1.73-3.13,5.89,5.89,0,0,1-.51-2.5,6.46,6.46,0,0,1,.4-1.9,4.2,4.2,0,0,1,.9-1.44,3.82,3.82,0,0,1,1.38-.93,4.53,4.53,0,0,1,1.62-.37,3.52,3.52,0,0,1,1.49.25,3,3,0,0,1,1.16.82,14,14,0,0,0,3.4,3,6.49,6.49,0,0,0,3.14,1,5.43,5.43,0,0,0,2.77-.63,4.79,4.79,0,0,0,2-1.83,6.36,6.36,0,0,0,.84-2.47,4,4,0,0,0-.53-2.51,5.43,5.43,0,0,0-2.32-2,9.87,9.87,0,0,0-4.36-.83,29.37,29.37,0,0,0-8.45,1,32.88,32.88,0,0,0-7.58,2.91,23.33,23.33,0,0,0-5.82,4.32,13.43,13.43,0,0,0-3.32,5.46,7.27,7.27,0,0,0,.94,5.94,20.45,20.45,0,0,0,5.1,5.28,61,61,0,0,0,8.06,5.12q4.69,2.58,9.87,5.31c2.93,1.62,5.94,3.37,9.06,5.24a76.51,76.51,0,0,1,8.76,6.21,63.76,63.76,0,0,1,7.53,7.44,34,34,0,0,1,5.5,9.13A38.43,38.43,0,0,1,209,735.1a44.69,44.69,0,0,1-3.34,16.37c-1.18,3-2.33,5.75-3.46,8.18a47.32,47.32,0,0,1-3.61,6.45,35.51,35.51,0,0,1-4,4.88,12.72,12.72,0,0,1-4.57,3,16,16,0,0,1-8.53,1.62,39.24,39.24,0,0,1-11.06-2.71A72.09,72.09,0,0,1,156.8,766a127,127,0,0,1-12-8.53c-3.67-2.89-6.9-5.72-9.75-8.44a94.12,94.12,0,0,1-6.78-7c-.57-.66-1.59-1.75-3-3.25s-3.08-3.23-4.87-5.23-3.65-4.13-5.59-6.47-3.68-4.6-5.26-6.88q-1.58-2.09-2.8-4.09t-2.16-3.86a31.3,31.3,0,0,1-1.5-3.58,11.63,11.63,0,0,1-.64-3.21,27.26,27.26,0,0,1,.21-4.7,10.36,10.36,0,0,1,1-3.35,6.18,6.18,0,0,1,2.09-2.44,10.16,10.16,0,0,1,3-1.32,13.47,13.47,0,0,1,3.89-.37,28,28,0,0,1,4.75.61,46.84,46.84,0,0,1,9.17,2.87,60.53,60.53,0,0,1,9.5,5.1,56.26,56.26,0,0,1,10.65,9,49.64,49.64,0,0,1,4.27,5.41,44.41,44.41,0,0,1,3.35,5.9,7.55,7.55,0,0,1,.36,2.12,11.49,11.49,0,0,1-.21,2.67c-.18,1-.39,1.91-.63,2.84a13.28,13.28,0,0,1-1,2.63,12,12,0,0,1-1.38,2.09,4.3,4.3,0,0,1-1.44,1.19,1.49,1.49,0,0,1-1.3,0,2.52,2.52,0,0,1-1-1.33,32.48,32.48,0,0,0-3.48-6.47,16.27,16.27,0,0,0-3.32-3.51,5.44,5.44,0,0,0-2.7-1.17,2.38,2.38,0,0,0-1.9.63,3,3,0,0,0-.85,2,7,7,0,0,0,.5,2.93,13.88,13.88,0,0,0,2.11,3.56,19.55,19.55,0,0,0,4.06,3.81,14,14,0,0,0,3.32,1.54,26,26,0,0,0,4.74,1.1,24.33,24.33,0,0,0,5.48.14,19.83,19.83,0,0,0,5.29-1.18,12.66,12.66,0,0,0,4.3-2.71,8.11,8.11,0,0,0,2.35-4.4,12.67,12.67,0,0,0-.55-6.07,24.72,24.72,0,0,0-4.24-7.6,42.28,42.28,0,0,0-6.39-6.59,79.43,79.43,0,0,0-6.8-4.92c-2.3-1.47-4.61-2.78-6.92-4s-4.59-2.32-6.85-3.48-4.23-2.25-6.3-3.44-4.05-2.42-6-3.73a70.78,70.78,0,0,1-5.72-4.31c-1.89-1.55-3.74-3.22-5.6-5l-1.34-1.54a13.46,13.46,0,0,1-1.36-1.86c-.41-.66-.82-1.35-1.22-2.07s-.8-1.43-1.15-2.14a19.72,19.72,0,0,1-.89-2.06,7.93,7.93,0,0,1-.47-1.86,4.31,4.31,0,0,1,.06-1.54,2.1,2.1,0,0,1,.68-1.14,39.28,39.28,0,0,1,6.41-4,96.21,96.21,0,0,1,8.91-4q6-2.31,13.91-4.65T153.83,650Z"/><path class="cls-2" d="M251.55,713.31a34.23,34.23,0,0,0,4.13-13.87,48.92,48.92,0,0,0-.84-13.25,60.36,60.36,0,0,0-2.09-8c-.87-2.59-1.76-5.06-2.67-7.44s-1.77-4.65-2.61-6.88-1.58-4.31-2.23-6.27a34.8,34.8,0,0,1-1.24-6.24,20.32,20.32,0,0,1,.28-6.13,21.86,21.86,0,0,1,2.27-6.1,35.68,35.68,0,0,1,4.8-6.6,31.27,31.27,0,0,1,6.24-5,58.5,58.5,0,0,1,8.36-4.35,67.93,67.93,0,0,1,9.48-3.26A39.72,39.72,0,0,1,285,618.5a25.63,25.63,0,0,1,7.05.18,20.55,20.55,0,0,1,6,2.07,14,14,0,0,1,4.68,4.09,16.74,16.74,0,0,1,2.71,6.2,14.06,14.06,0,0,1,.08,5.13,21,21,0,0,1-1.43,4.87,27.44,27.44,0,0,1-2.46,4.49c-1,1.45-2,2.93-3,4.45s-2,3-3.11,4.5a24.33,24.33,0,0,0-2.69,4.67,28.82,28.82,0,0,0-1.66,5,15.56,15.56,0,0,0-.19,5.62,9.28,9.28,0,0,0,1.78,4.44,8.92,8.92,0,0,0,3.28,2.49,12.44,12.44,0,0,0,4.57,1,24.12,24.12,0,0,0,5.58-.37c2-.35,4.11-.79,6.37-1.33s4.59-1.19,7-1.94,4.75-1.49,7.11-2.19l7.2-2.14a86.8,86.8,0,0,1,9.12-1.63,17.54,17.54,0,0,1,8.08.74,13.7,13.7,0,0,1,6.17,4.5c1.69,2.16,2.91,5.37,3.64,9.66a41.23,41.23,0,0,1,.31,13.76,100.15,100.15,0,0,1-3.3,14.48q-2.29,7.49-5.25,15.52t-5.45,17.11a22.51,22.51,0,0,0-.94,6.48,37.77,37.77,0,0,0,.73,7.51,85.37,85.37,0,0,0,2.16,8.57q1.39,4.63,3.11,9.26,2.37,6.42,5.2,13.1t5.75,13.57q2.91,6.9,5.49,13.61t4.65,13.23c2.46,7.67,3.68,14.35,3.57,19.94s-1.14,10.2-3.13,13.79a16.69,16.69,0,0,1-8.37,7.58,26.62,26.62,0,0,1-12.24,1.62,59.26,59.26,0,0,1-16.73-4.36A91.56,91.56,0,0,1,319,858.37a108.2,108.2,0,0,1-15.57-12.76,84.53,84.53,0,0,1-12-14.59,10.25,10.25,0,0,1-1.13-5.18,64.75,64.75,0,0,1,.55-7.62,88.77,88.77,0,0,1,1.88-9.93q1.32-5.49,3-11.45c.74-3,1.56-6.17,2.44-9.44s1.8-6.56,2.76-9.84,1.89-6.71,2.79-10.24,1.77-7,2.63-10.41,1.61-6.81,2.27-10.2,1.3-6.67,1.91-9.82,1.11-6.19,1.5-9.12a82.3,82.3,0,0,0,.7-8.33,27.25,27.25,0,0,0-.42-7.1,7,7,0,0,0-1.76-3.63,3.06,3.06,0,0,0-2.75-.69,13.7,13.7,0,0,0-3.33,1.14c-1,.76-2.06,1.59-3.17,2.49s-2.15,1.8-3.1,2.71-1.7,1.67-2.25,2.28a4.06,4.06,0,0,0-.87,1.18,70.88,70.88,0,0,0-1.51,7.44c-.45,2.92-.85,6.21-1.17,9.88s-.62,7.6-.87,11.83-.42,8.47-.49,12.77q-.51,8.47-.86,17t-1.07,16c-.48,5-1.09,9.41-1.84,13.25a25.38,25.38,0,0,1-2.85,8.47,29.62,29.62,0,0,1-8.82,8.85,21,21,0,0,1-9.81,3,27.93,27.93,0,0,1-9.2-1.23A62.23,62.23,0,0,1,246.24,821q-5.44-2.7-11.27-6.32t-12.43-8c-6-4-10.36-8.09-13.23-12.07s-4.45-7.69-4.83-11.3a17.73,17.73,0,0,1,.19-7,35.7,35.7,0,0,1,2.39-7,39.47,39.47,0,0,1,4.11-7c1.65-2.32,3.46-4.69,5.4-7.12,1.57-1.75,3.19-3.58,4.88-5.49s3.39-3.83,5.15-5.73l5.22-5.73q2.6-2.89,5-5.72t4.78-5.45c1.56-1.75,3-3.46,4.25-5.11s2.38-3.22,3.33-4.68S250.94,714.41,251.55,713.31Z"/><path class="cls-2" d="M407.85,822q-3.47-10.46-7.25-20.7t-7.1-20.19q-3.33-9.95-5.93-20.29t-4.64-21.4q-1.65-9.9-3.48-21.62t-3.06-24.23Q375.16,681,375,668.07a147.49,147.49,0,0,1,1.51-25,92.55,92.55,0,0,1,5.81-24,57.78,57.78,0,0,1,12.25-19.57,53.61,53.61,0,0,1,8.06-7.09,42.78,42.78,0,0,1,8.8-4.85,69.73,69.73,0,0,1,9.56-3q5-1.2,10.13-2.17a36.08,36.08,0,0,1,17.14,2,61.9,61.9,0,0,1,16.27,9.24,67.59,67.59,0,0,1,9.63,9,124.3,124.3,0,0,1,8.4,10.57,85.9,85.9,0,0,1,7,11.85,111.39,111.39,0,0,1,5.17,12.37,78.73,78.73,0,0,1,3.37,13.05,43.91,43.91,0,0,1,.39,12.4,42,42,0,0,1-2.83,10.91,22.77,22.77,0,0,1-6.22,8.64,80.65,80.65,0,0,1-14.53,10.86c-4.82,2.76-9.24,5.24-13.23,7.49a61.74,61.74,0,0,0-7.89,3.9,20.47,20.47,0,0,0-5.51,4.6,13.52,13.52,0,0,0-2.81,5.69,14.62,14.62,0,0,0,.71,7.55,37.11,37.11,0,0,0,4,9.74,31.86,31.86,0,0,0,6,7.38,20.11,20.11,0,0,0,12,4.84,19.59,19.59,0,0,0,12.35-3.43c3.65-2.87,6.72-7,9.19-12.59s3.65-12.52,3.62-20.83c.06-3.16.68-5.54,1.88-7.15a7.32,7.32,0,0,1,5-2.88,17.54,17.54,0,0,1,7.54.82,38.43,38.43,0,0,1,9.45,4.58,112.81,112.81,0,0,1,17.21,13.75,168.24,168.24,0,0,1,18,20.43q5.58,7.17,10.27,14.36t8.62,14.32q3.91,7.14,7.63,14.6t6.77,14.81q6,13.62,11.61,28.86t12.61,33.72a61.63,61.63,0,0,1,4,22.55,39.26,39.26,0,0,1-5.29,19.21,43.74,43.74,0,0,1-14.06,14.15,69.26,69.26,0,0,1-21.1,8.59,90.41,90.41,0,0,1-17.25,2.29,128.4,128.4,0,0,1-19-.62,162.25,162.25,0,0,1-19.78-3.35,138.23,138.23,0,0,1-20.1-6.28,178.81,178.81,0,0,1-17.3-8.12A159.1,159.1,0,0,1,463.16,896a152.72,152.72,0,0,1-15.52-12.37,142.9,142.9,0,0,1-13.82-14.42,145.22,145.22,0,0,1-14.44-21.5A172.74,172.74,0,0,1,407.85,822ZM440.8,668a29.6,29.6,0,0,0,5.22-4.77,14.84,14.84,0,0,0,3.17-5.9,22.06,22.06,0,0,0,.69-6.87,15.84,15.84,0,0,0-1.83-6.72,17.81,17.81,0,0,0-4.43-5.66,16.17,16.17,0,0,0-5.49-3,15.75,15.75,0,0,0-12.55,1.62,17,17,0,0,0-5.07,4.74,19.45,19.45,0,0,0-3,6.14,23,23,0,0,0-.84,6.7,16,16,0,0,0,1.73,6.9,15.53,15.53,0,0,0,4,5,15.36,15.36,0,0,0,5.59,3,19,19,0,0,0,6.42.7A15.39,15.39,0,0,0,440.8,668Z"/><path class="cls-2" d="M556.67,595.91a64.48,64.48,0,0,0,4.11,12.42q2.91,6.69,6.9,13.86t9.14,15.13q5.14,7.95,10.91,15.87T600,669.26q6.45,8.18,13.19,16.23t13.41,15.68q6.66,7.64,13,14.63,5.75,6.18,11,11t10.45,9.32q5.25,4.54,11,9.73t12.19,11.76q4.78,5.1,10.47,10.95t11.12,11.85q5.45,6,10.78,12.62t9.87,13.35a133.61,133.61,0,0,1,8,13.59,73.27,73.27,0,0,1,5.39,13.51,49.76,49.76,0,0,1,1.92,13.36,42.74,42.74,0,0,1-2,13.18,32.4,32.4,0,0,1-9.51,12.28,43,43,0,0,1-14.63,7.29,75.58,75.58,0,0,1-18.93,2.72,189.48,189.48,0,0,1-21.56-.64,41.22,41.22,0,0,1-17.2-5.62q-8.94-5-18.28-14.8t-18.85-25.32a303,303,0,0,1-19.14-37.64q-2.88-7.18-4.75-13.53t-3.52-12.83q-1.66-6.5-3.5-13.23a147.12,147.12,0,0,0-4.9-14.58q-2.1-5.7-4.69-13t-5.76-15.75q-3.15-8.44-6.88-17.47t-8.28-18.52q-4.56-9.5-9.88-18.91t-11.47-18.34A194.7,194.7,0,0,0,524.74,625a135.45,135.45,0,0,0-14.67-14.59A130.16,130.16,0,0,1,495.17,596a101.67,101.67,0,0,1-10.2-13.9,72.51,72.51,0,0,1-6.41-13.31,65.62,65.62,0,0,1-3.15-12.5,42,42,0,0,1-.25-11.24,44.19,44.19,0,0,1,2.25-9.68,30.65,30.65,0,0,1,4.16-7.92,24.22,24.22,0,0,1,5.95-5.71,22.13,22.13,0,0,1,7.43-3.16,25.21,25.21,0,0,1,8.58-.28,31.16,31.16,0,0,1,9.36,2.9,44.36,44.36,0,0,1,9.8,6.7,77.49,77.49,0,0,1,9.79,10.5A98.87,98.87,0,0,1,541.79,553a141.62,141.62,0,0,1,8.29,19.21A197.11,197.11,0,0,1,556.67,595.91Z"/><path class="cls-2" d="M704.26,734.18a64.42,64.42,0,0,1-3.64-6.39q-2.16-4.17-5.08-10.25t-6.81-13.44q-3.88-7.38-8.71-16t-10.64-18q-5.8-9.37-12.59-19.15t-14.48-19.68q-7.68-9.9-16.38-19.56-3.9-4.29-6.84-7.1a50.66,50.66,0,0,0-5.18-4.41,14.32,14.32,0,0,0-4-2.17,21.25,21.25,0,0,0-3.31-.77,5.91,5.91,0,0,0-2.77.23l-2.53.88a19.29,19.29,0,0,1-2.67.7,8.72,8.72,0,0,1-3.13,0,11.44,11.44,0,0,1-4.38-1,35.3,35.3,0,0,1-4.67-2.47,39.85,39.85,0,0,1-4.76-3.5,42.77,42.77,0,0,1-4.4-4.32,49,49,0,0,1-3.64-4.65,23.78,23.78,0,0,1-2.48-4.45,20.78,20.78,0,0,1-1.25-4.35,6.81,6.81,0,0,1,.44-4,43.36,43.36,0,0,0,3.18-11.83,18.7,18.7,0,0,0-1-8.68,15.36,15.36,0,0,0-4.39-6.1,32.72,32.72,0,0,0-6.75-4.33,94.57,94.57,0,0,1-9.6-5.59,50.62,50.62,0,0,1-7-5.51,28.08,28.08,0,0,1-4.45-5.39A21,21,0,0,1,538,517.5a16.2,16.2,0,0,1-.66-5,22.56,22.56,0,0,1,.66-4.73,37.19,37.19,0,0,1,1.54-4.65,19.62,19.62,0,0,1,2.25-4.12q1.8-2.83,3-4.77a13.78,13.78,0,0,1,2.56-3.24,20.13,20.13,0,0,1,3.28-2.4,25.91,25.91,0,0,1,4.92-2.12,29.68,29.68,0,0,1,7.6-2.47,26,26,0,0,1,6.54-.29,18.89,18.89,0,0,1,5.42,1.33,18.25,18.25,0,0,1,4.54,2.74,24.4,24.4,0,0,1,3.8,4,38.86,38.86,0,0,1,3.15,4.92q1.43,2.61,2.75,5.61t2.57,6.08a63.14,63.14,0,0,0,6.59,12.06,15.84,15.84,0,0,0,6.38,5.34,13,13,0,0,0,7.57.66c2.77-.5,6.08-1.11,9.93-1.85a13.11,13.11,0,0,1,5.18.05,17.09,17.09,0,0,1,5.11,1.95,27.66,27.66,0,0,1,4.59,3.36,39.09,39.09,0,0,1,4,4.21,28.05,28.05,0,0,1,3.16,4.73,19.8,19.8,0,0,1,1.83,4.76,13.65,13.65,0,0,1,.37,4.28,7.42,7.42,0,0,1-1.33,3.71,14.79,14.79,0,0,0-3.86,8.15,26.56,26.56,0,0,0,.43,9,34.88,34.88,0,0,0,3.24,8.89,50.09,50.09,0,0,0,4.75,7.55,105.46,105.46,0,0,0,10.59,12.39q6.08,6.15,12.93,11.92T687.65,621q7.49,5.6,15.48,11t16.29,11q8.3,5.53,16.58,11t16.36,11.21q8.07,5.73,15.88,11.67a131.84,131.84,0,0,1,12.7,11.6q6.13,6.36,11.54,13.15t9.85,13.61q4.42,6.82,8,13.46t6.35,12.5c1.81,3.9,3.31,7.46,4.48,10.65a39.21,39.21,0,0,1,2.19,7.91,9.3,9.3,0,0,1,0,4.12,65.35,65.35,0,0,1-8.32,12.4,68.45,68.45,0,0,1-10.6,9.88,54.76,54.76,0,0,1-12.7,7.06,52.13,52.13,0,0,1-14.42,3.38,31.07,31.07,0,0,1-13.46-1.73c-5.07-1.62-10.67-4.79-16.75-9.45a137.08,137.08,0,0,1-19.76-19.36Q716.71,753.71,704.26,734.18Z"/><path class="cls-2" d="M793.6,657.06q-10.47-9.1-20.88-17.8T752.5,622.05q-9.79-8.52-19.39-17.7T714,585.24q-8.4-8.94-18-19.46t-19-21.69q-9.36-11.19-17.84-22.88a182.45,182.45,0,0,1-14.26-22.71A90.54,90.54,0,0,1,635.7,476a41.18,41.18,0,0,1-.47-19.94,33.48,33.48,0,0,1,2.95-8.15,28,28,0,0,1,4.67-6.52,50.68,50.68,0,0,1,6.08-5.32c2.22-1.66,4.48-3.28,6.8-4.86a29.42,29.42,0,0,1,13.6-3.94,53.07,53.07,0,0,1,15.38,1.59A58.7,58.7,0,0,1,695,432.39a105.77,105.77,0,0,1,10,5.1,76.35,76.35,0,0,1,9.52,6.58,110.51,110.51,0,0,1,8.64,7.7,89.48,89.48,0,0,1,8,9,57.48,57.48,0,0,1,6.2,9.81,61.53,61.53,0,0,1,3.92,10.08,27.91,27.91,0,0,1,1.1,9.77,75.71,75.71,0,0,1-2.11,15.27q-1.74,6.57-3.21,12a44.05,44.05,0,0,0-2.24,6.68,18.39,18.39,0,0,0-.43,6.34A18,18,0,0,0,736.2,537a23.81,23.81,0,0,0,5.16,6.45,55.16,55.16,0,0,0,8.52,7.05,34.5,34.5,0,0,0,8,4.06q5.77,1.66,9.44-1c2.43-1.8,3.78-4.72,4.06-8.73,0-4.22-1-9.33-3.1-15.28a90.21,90.21,0,0,0-10.21-19.56,18.08,18.08,0,0,1-3-6.88,6,6,0,0,1,1-4.62,8,8,0,0,1,4.24-2.66,18.65,18.65,0,0,1,7-.46,65,65,0,0,1,15.09,3.4A111.69,111.69,0,0,1,800.69,507q6,3.21,11.6,6.83t10.88,7.61q5.28,4,10.67,8.34t10.55,9q9.68,8.4,20.31,18.53t23.92,22.45a129.49,129.49,0,0,1,15.64,17.94,137.21,137.21,0,0,1,12.6,21.08,132.17,132.17,0,0,1,8.36,22.37A98.49,98.49,0,0,1,928.6,663a57.27,57.27,0,0,1-1.11,13.34,43,43,0,0,1-4.13,11.52,35.3,35.3,0,0,1-7.08,9.08,29,29,0,0,1-10.3,6,48.57,48.57,0,0,1-11.83,2.1,65.16,65.16,0,0,1-14.23-.75,98.93,98.93,0,0,1-16.23-4,142.86,142.86,0,0,1-17.93-7.44A218.81,218.81,0,0,1,820.94,678,337.45,337.45,0,0,1,793.6,657.06Zm-88.05-159.2a25.8,25.8,0,0,0,.73-6,16.74,16.74,0,0,0-1.16-6.16,29.43,29.43,0,0,0-3.19-6,19.77,19.77,0,0,0-4.7-4.89,18.81,18.81,0,0,0-5.87-3.05,13.55,13.55,0,0,0-5.29-.54,10.22,10.22,0,0,0-4.62,1.76,9.64,9.64,0,0,0-3.31,4,13,13,0,0,0-1.06,5.73,19,19,0,0,0,1.22,6.24,28.12,28.12,0,0,0,3.17,6,21.79,21.79,0,0,0,5.15,5.32,18.45,18.45,0,0,0,5.65,2.88,12.58,12.58,0,0,0,5.49.51,10.7,10.7,0,0,0,4.64-1.79A8.77,8.77,0,0,0,705.55,497.86Z"/><path class="cls-2" d="M749,385.75q-.24-1.83-.51-3.57t-.66-3.54c-.26-1.2-.5-2.4-.74-3.6a11.07,11.07,0,0,1-.15-3.53,15,15,0,0,1,.95-3.7,14.09,14.09,0,0,1,2.47-4,33.27,33.27,0,0,1,4.36-4.17,74,74,0,0,1,6.32-4.51,45.52,45.52,0,0,1,7.13-3.83,21.64,21.64,0,0,1,7-1.68,23.91,23.91,0,0,1,7.22.66,39.53,39.53,0,0,1,8,3.06,69.76,69.76,0,0,1,8.61,4.56c3.1,1.9,6.48,4.05,10.17,6.45a32.72,32.72,0,0,1,6.22,5.37,35.56,35.56,0,0,1,4.4,6.09,33.17,33.17,0,0,1,2.87,6.55,22.06,22.06,0,0,1,1.09,6.27,17.43,17.43,0,0,1-.54,5.92,11.63,11.63,0,0,1-2.46,4.58,9.61,9.61,0,0,1-4.27,2.75,15.65,15.65,0,0,1-5.92.68c-5.41-2.32-9.5-4-12.22-5a19.49,19.49,0,0,0-5.07-1.45c-.67,0-.51.55.48,1.55a46.3,46.3,0,0,0,4.77,4q1.94,1.72,4.57,3.83t5.38,4.5c2.88,1.68,5.92,3.25,9.08,4.71s6.35,2.8,9.54,4c4.32,1.7,8.64,3.21,12.91,4.53s8.42,2.54,12.39,3.65q6.26,1.62,12.1,2.75l11.11,2.16c3.53.69,6.83,1.27,9.9,1.76L894,435a63.47,63.47,0,0,1,13.44,3.75,60.32,60.32,0,0,1,11,5.87,52,52,0,0,1,5.85,4.32c1.93,1.64,3.76,3.33,5.48,5.09a58.37,58.37,0,0,1,8.3,10.6c4.14,7,7.9,14,11.18,20.85a125.87,125.87,0,0,1,7.42,19.25,60.08,60.08,0,0,1,2.45,15.69c0,4.66-1.05,8.32-3.07,11a9.67,9.67,0,0,1-6.09,4.6,22.68,22.68,0,0,1-8.75.45,47.23,47.23,0,0,1-10.4-2.7,117.88,117.88,0,0,1-11.51-5,145.24,145.24,0,0,1-14.83-8.6q-7.56-5-14-10.11-4.56-3.47-8.37-6.57T875,497.36c-2.17-1.95-4.11-3.76-5.83-5.41s-3.17-3.09-4.36-4.32q-8.68-8.62-17.06-15.45a190.82,190.82,0,0,0-17-12.35A174.57,174.57,0,0,0,813.48,450a179.13,179.13,0,0,0-17.38-7.48q-5.64-2.14-11.74-3.89c-4.07-1.17-8.05-2.18-12-3q-6.18-1.42-11.95-2.38t-11.74-1.75a84.35,84.35,0,0,1-12.7-2.32,53.59,53.59,0,0,1-10.06-3.68,36.11,36.11,0,0,1-7.13-4.56,17.65,17.65,0,0,1-4.3-5.12,11.87,11.87,0,0,1-1.21-8.39,18.74,18.74,0,0,1,4.17-8.15,49.83,49.83,0,0,1,5.83-4.93,39.8,39.8,0,0,1,7.35-4.13,55,55,0,0,1,8.82-2.94A60.71,60.71,0,0,1,749,385.75Z"/><path class="cls-2" d="M822.5,453.22"/><path class="cls-3" d="M190.81,599.29a102.77,102.77,0,0,1-25.13,19.11,76.1,76.1,0,0,1-26,8.46,71.53,71.53,0,0,1-25.85-2.23A78.58,78.58,0,0,1,89.81,612.5,112.37,112.37,0,0,1,68,590.24a179.7,179.7,0,0,1-17.67-31.3,134.55,134.55,0,0,1-6.43-18.83A173.58,173.58,0,0,1,40,519.68,198.86,198.86,0,0,1,38.54,498q-.15-11.13.56-22.35c.41-7.68,1.19-15.36,2.31-23.11s2.49-15.45,4.07-23.15,3.35-15.27,5.32-22.77S55,391.78,57.37,384.5q2.9-8.33,6.29-17t7.27-17q3.88-8.26,8-15.7a136.71,136.71,0,0,1,8.06-13q3.8-5.31,7.93-11.27t8.4-11.81q4.26-5.85,8.73-11.25a106.78,106.78,0,0,1,9-9.56,46.27,46.27,0,0,1,7.08-5.49,28.55,28.55,0,0,1,7.29-3.25,18.82,18.82,0,0,1,7.38-.54,22.82,22.82,0,0,1,7.52,2.42,18.08,18.08,0,0,1,6.29,7.73,50.15,50.15,0,0,1,3.88,12.64A100.7,100.7,0,0,1,162,307.53a131.73,131.73,0,0,1-.81,17.82c-.38,4.5-.94,9-1.69,13.38s-1.64,8.71-2.69,12.84a113.19,113.19,0,0,1-3.7,11.84,110,110,0,0,1-4.53,10.42,43.51,43.51,0,0,1-5.22,8.18,22.85,22.85,0,0,1-5.8,5.18,12.22,12.22,0,0,1-6.24,1.83,11.25,11.25,0,0,1-6.45-2.13c-.48-.34-.48-1.18,0-2.52a34.76,34.76,0,0,1,2.32-4.76q1.58-2.75,3.45-6.31a45.1,45.1,0,0,0,3.17-7.82,37.62,37.62,0,0,0,1.36-5c.36-1.8.63-3.41.81-4.85a17.72,17.72,0,0,0,.1-3.8,5.62,5.62,0,0,0-.76-2.55,1.92,1.92,0,0,0-1.81-.85,5.76,5.76,0,0,0-3,1.49,32.64,32.64,0,0,0-4.16,4.29Q124,357,120.8,361.76a59.44,59.44,0,0,0-5.53,12.53q-2.88,8.43-5.5,19.61T105,418.35q-2.17,13.26-3.19,27.34c-.75,9.2-1.1,18.43-1,27.75a186.43,186.43,0,0,0,2,26.43,120.47,120.47,0,0,0,5.83,23,50.92,50.92,0,0,0,10.7,17.46,22.77,22.77,0,0,0,5.7,4.51,14.28,14.28,0,0,0,5.56,1.76,12.05,12.05,0,0,0,5.06-.68,18.6,18.6,0,0,0,8.8-6.83,49.89,49.89,0,0,0,3.47-5.68,51.85,51.85,0,0,0,2.86-6.42c.83-2.25,1.57-4.64,2.24-7.18a86.85,86.85,0,0,0,1.83-11.18A59.12,59.12,0,0,0,155,498a28.16,28.16,0,0,0-1.86-8.49,9.8,9.8,0,0,0-4-5.06,1.56,1.56,0,0,0-1.51,0,20.5,20.5,0,0,0-2.28,1,13.72,13.72,0,0,0-2.7,2,17.11,17.11,0,0,0-2.62,3,24.66,24.66,0,0,0-2.17,3.92,20.83,20.83,0,0,0-1.43,4.52,19.45,19.45,0,0,0-.32,4.94,22.14,22.14,0,0,0,1.14,5.69,65.45,65.45,0,0,1,3.32,11.72q.66,4.38-.21,6.21a2.38,2.38,0,0,1-3,1.33,10.91,10.91,0,0,1-4.69-2.9,35.18,35.18,0,0,1-5.11-6.53,53.55,53.55,0,0,1-4.71-9.85,79.78,79.78,0,0,1-3.43-12.74,76.26,76.26,0,0,1-1.21-14.84q.25-9.37.79-18.16t1.56-16.52a132.77,132.77,0,0,1,2.52-14,39.42,39.42,0,0,1,3.64-10q4.86-8.65,9.52-16.92t9.29-15.49q4.64-7.23,9.22-13.48a96.65,96.65,0,0,1,9.48-11.09,49.43,49.43,0,0,1,9.55-8.16,36.93,36.93,0,0,1,10.14-4.57,30.67,30.67,0,0,1,10.92-.86A36.71,36.71,0,0,1,206.7,356c2,.9,4.14,2.05,6.56,3.47a86.09,86.09,0,0,1,7.37,4.85,54.22,54.22,0,0,1,7,6,32.74,32.74,0,0,1,5.3,6.91,132.18,132.18,0,0,1,12.14,27.66,157.24,157.24,0,0,1,6.29,29.2A184,184,0,0,1,252.1,458a181.57,181.57,0,0,1-2.47,24.21,213.89,213.89,0,0,1-5.6,24.06q-3.56,12-8.18,23.48-4.31,10.26-9.36,19.89t-10.82,18.66a175.09,175.09,0,0,1-12,16.72Q197.29,592.79,190.81,599.29Z"/><path class="cls-4" d="M190.81,599.29a102.77,102.77,0,0,1-25.13,19.11,76.1,76.1,0,0,1-26,8.46,71.53,71.53,0,0,1-25.85-2.23A78.58,78.58,0,0,1,89.81,612.5,112.37,112.37,0,0,1,68,590.24a179.7,179.7,0,0,1-17.67-31.3,134.55,134.55,0,0,1-6.43-18.83A173.58,173.58,0,0,1,40,519.68,198.86,198.86,0,0,1,38.54,498q-.15-11.13.56-22.35c.41-7.68,1.19-15.36,2.31-23.11s2.49-15.45,4.07-23.15,3.35-15.27,5.32-22.77S55,391.78,57.37,384.5q2.9-8.33,6.29-17t7.27-17q3.88-8.26,8-15.7a136.71,136.71,0,0,1,8.06-13q3.8-5.31,7.93-11.27t8.4-11.81q4.26-5.85,8.73-11.25a106.78,106.78,0,0,1,9-9.56,46.27,46.27,0,0,1,7.08-5.49,28.55,28.55,0,0,1,7.29-3.25,18.82,18.82,0,0,1,7.38-.54,22.82,22.82,0,0,1,7.52,2.42,18.08,18.08,0,0,1,6.29,7.73,50.15,50.15,0,0,1,3.88,12.64A100.7,100.7,0,0,1,162,307.53a131.73,131.73,0,0,1-.81,17.82c-.38,4.5-.94,9-1.69,13.38s-1.64,8.71-2.69,12.84a113.19,113.19,0,0,1-3.7,11.84,110,110,0,0,1-4.53,10.42,43.51,43.51,0,0,1-5.22,8.18,22.85,22.85,0,0,1-5.8,5.18,12.22,12.22,0,0,1-6.24,1.83,11.25,11.25,0,0,1-6.45-2.13c-.48-.34-.48-1.18,0-2.52a34.76,34.76,0,0,1,2.32-4.76q1.58-2.75,3.45-6.31a45.1,45.1,0,0,0,3.17-7.82,37.62,37.62,0,0,0,1.36-5c.36-1.8.63-3.41.81-4.85a17.72,17.72,0,0,0,.1-3.8,5.62,5.62,0,0,0-.76-2.55,1.92,1.92,0,0,0-1.81-.85,5.76,5.76,0,0,0-3,1.49,32.64,32.64,0,0,0-4.16,4.29Q124,357,120.8,361.76a59.44,59.44,0,0,0-5.53,12.53q-2.88,8.43-5.5,19.61T105,418.35q-2.17,13.26-3.19,27.34c-.75,9.2-1.1,18.43-1,27.75a186.43,186.43,0,0,0,2,26.43,120.47,120.47,0,0,0,5.83,23,50.92,50.92,0,0,0,10.7,17.46,22.77,22.77,0,0,0,5.7,4.51,14.28,14.28,0,0,0,5.56,1.76,12.05,12.05,0,0,0,5.06-.68,18.6,18.6,0,0,0,8.8-6.83,49.89,49.89,0,0,0,3.47-5.68,51.85,51.85,0,0,0,2.86-6.42c.83-2.25,1.57-4.64,2.24-7.18a86.85,86.85,0,0,0,1.83-11.18A59.12,59.12,0,0,0,155,498a28.16,28.16,0,0,0-1.86-8.49,9.8,9.8,0,0,0-4-5.06,1.56,1.56,0,0,0-1.51,0,20.5,20.5,0,0,0-2.28,1,13.72,13.72,0,0,0-2.7,2,17.11,17.11,0,0,0-2.62,3,24.66,24.66,0,0,0-2.17,3.92,20.83,20.83,0,0,0-1.43,4.52,19.45,19.45,0,0,0-.32,4.94,22.14,22.14,0,0,0,1.14,5.69,65.45,65.45,0,0,1,3.32,11.72q.66,4.38-.21,6.21a2.38,2.38,0,0,1-3,1.33,10.91,10.91,0,0,1-4.69-2.9,35.18,35.18,0,0,1-5.11-6.53,53.55,53.55,0,0,1-4.71-9.85,79.78,79.78,0,0,1-3.43-12.74,76.26,76.26,0,0,1-1.21-14.84q.25-9.37.79-18.16t1.56-16.52a132.77,132.77,0,0,1,2.52-14,39.42,39.42,0,0,1,3.64-10q4.86-8.65,9.52-16.92t9.29-15.49q4.64-7.23,9.22-13.48a96.65,96.65,0,0,1,9.48-11.09,49.43,49.43,0,0,1,9.55-8.16,36.93,36.93,0,0,1,10.14-4.57,30.67,30.67,0,0,1,10.92-.86A36.71,36.71,0,0,1,206.7,356c2,.9,4.14,2.05,6.56,3.47a86.09,86.09,0,0,1,7.37,4.85,54.22,54.22,0,0,1,7,6,32.74,32.74,0,0,1,5.3,6.91,132.18,132.18,0,0,1,12.14,27.66,157.24,157.24,0,0,1,6.29,29.2A184,184,0,0,1,252.1,458a181.57,181.57,0,0,1-2.47,24.21,213.89,213.89,0,0,1-5.6,24.06q-3.56,12-8.18,23.48-4.31,10.26-9.36,19.89t-10.82,18.66a175.09,175.09,0,0,1-12,16.72Q197.29,592.79,190.81,599.29Z"/><path class="cls-2" d="M191.3,191.13c1.27-2.24,2.87-3.51,4.81-3.76a10.32,10.32,0,0,1,6.3,1.52,23.61,23.61,0,0,1,6.84,6.33,57.44,57.44,0,0,1,6.38,10.56,61.54,61.54,0,0,1,3,7.9,79.75,79.75,0,0,1,2.24,9.2,90.74,90.74,0,0,1,1.23,10.17,76.76,76.76,0,0,1,0,10.83,30.15,30.15,0,0,1-.9,5.47c-.48,1.85-1.05,3.81-1.71,5.9A37.3,37.3,0,0,1,217,261.3a24.9,24.9,0,0,1-3.3,4.95,16.1,16.1,0,0,1-3.87,3.3,6.57,6.57,0,0,1-4.54.9,11.1,11.1,0,0,1-5-2.36,26.62,26.62,0,0,1-5.36-6.09,73.36,73.36,0,0,1-7-15.74,80,80,0,0,1-3.4-18.32,82.3,82.3,0,0,1,.91-18.82A57.64,57.64,0,0,1,191.3,191.13Zm70.26,138a86.18,86.18,0,0,0,2.33,9.09q1.58,5.15,3.79,10.76t5,11.81q2.76,6.18,5.76,12.4,4.35,9.47,9.14,18.47t9.22,16.26q4.41,7.26,8.07,12.44a44.52,44.52,0,0,0,6,7.27,40.57,40.57,0,0,1,4.95,4.93,97.24,97.24,0,0,1,6.45,8.25q3.41,4.8,7,10.81a124,124,0,0,1,6.74,13q2.48,5.38,4.66,11.33a88.82,88.82,0,0,1,3.52,12.17,105.52,105.52,0,0,1,1.91,12.66,77,77,0,0,1,0,13.24,55.58,55.58,0,0,1-3,14.2,50,50,0,0,1-7.34,14.09,51.4,51.4,0,0,1-6.62,7.17,28.22,28.22,0,0,1-8.34,5.21,5.18,5.18,0,0,1-3.47.54,12.09,12.09,0,0,1-5.48-2.65,39.72,39.72,0,0,1-7.51-8.48A112.66,112.66,0,0,1,295,526.87q-3.45-7.17-7.32-17.12t-8.32-23.18q-2.07-6.51-3.86-13.64T272,458.18q-1.67-7.62-3.34-15.54t-3.82-16.2q-2.16-8.87-4.95-17.92t-6.43-18.9q-3.65-9.89-8.3-20.31T234.35,347.6c-1.31-2.45-2.73-4.85-4.27-7.18s-3.16-4.77-4.86-7.29-3.32-5.14-4.87-7.84-3-5.44-4.28-8.23c-.87-2.13-1.68-4.34-2.42-6.66a38.5,38.5,0,0,1-1.54-7.18,44.6,44.6,0,0,1-.24-7.71,50.15,50.15,0,0,1,1.22-8.42,63.74,63.74,0,0,1,4-11.74,22.07,22.07,0,0,1,6.24-8.36,14.81,14.81,0,0,1,6.34-3.05,13.25,13.25,0,0,1,8.06,1.2q2.91.78,6.17,6.11a76.78,76.78,0,0,1,6.33,13.91q2.92,8.18,5.89,19.63T261.56,329.09Z"/><path class="cls-2" d="M253.62,171.53a17.25,17.25,0,0,0,5.19-2.86A22.05,22.05,0,0,0,263.2,164a56.78,56.78,0,0,0,3.72-5.94l3.45-6.26c1.12-2.05,2.25-4.08,3.37-6.12a49.38,49.38,0,0,1,3.53-5.48,20.84,20.84,0,0,1,3.88-4,14.86,14.86,0,0,1,4.36-2.36q2.69-.42,5.56-.64t5.67-.62a14.46,14.46,0,0,0,5.26-1.82,11.66,11.66,0,0,0,4.14-4.12c1.66-3.11,3.63-6.58,5.93-10.38s4.78-7.4,7.43-10.9a96.35,96.35,0,0,1,8.21-9.45,20.87,20.87,0,0,1,8.66-5.49,12.4,12.4,0,0,1,8.83.75c2.93,1.35,5.84,4.42,8.68,9.2s5.47,11.3,7.85,19.63a277.94,277.94,0,0,1,6.69,32.19A135.48,135.48,0,0,0,374.23,176q4.18,12.44,9.94,25.3T396.84,227q6.92,12.76,14.33,25.1t14.73,23.21q7.31,10.89,13.59,20t11.37,16.13q5.08,7,8.15,11.36c2.17,3.15,4.4,6.63,6.7,10.41s4.63,7.78,7,12,4.66,8.65,6.89,13.27,4.34,9.16,6.32,13.69,3.76,9,5.37,13.55,3,8.81,4.05,12.9a90.12,90.12,0,0,1,2.39,11.75,35,35,0,0,1,.1,9.78,55.36,55.36,0,0,1-4.23,16.37,22.77,22.77,0,0,1-7.46,9.55A13.15,13.15,0,0,1,475.68,448q-6-1.2-13.46-7.14a30.27,30.27,0,0,1-3.34-4.18,75.6,75.6,0,0,1-4.23-6.93q-2.17-4-4.76-9.17t-5.39-11.38Q441.7,403,439,396.55t-5.15-13.29q-2.5-6.88-4.82-13.66c-1.55-4.52-2.95-8.89-4.19-13.08q-4.15-14.08-10.9-30.9-6.75-17-15.81-36.77-9.07-20-20.45-42.39-11.4-22.67-24.33-46.66a15.88,15.88,0,0,0-3.82-4.82,8.56,8.56,0,0,0-4.25-2.26c-1.23-.14-2,.54-2.28,2.05s.33,4.23,1.87,8.18q4.38,10.71,8.07,20.64t7.06,19q3.36,9.1,6.61,17.95T373,277.63q3.12,8.22,6.49,16.49t7.21,16.71q3.82,8.44,8.47,17.39t9.92,18.19q5.46,9.64,11.93,20.22t12.73,21.87Q436,399.79,441.64,412a207.58,207.58,0,0,1,9.78,25.48,50.73,50.73,0,0,1,2.3,10.5,38.42,38.42,0,0,1-.06,9.25,27.2,27.2,0,0,1-2,7.44,21.22,21.22,0,0,1-3.43,5.57,15.94,15.94,0,0,1-4.55,3.69,9.48,9.48,0,0,1-5.26,1.13,13.87,13.87,0,0,1-5.62-1.76,19.71,19.71,0,0,1-5.47-4.61,59.42,59.42,0,0,1-7.28-9.65q-3.6-5.82-7.07-12.71T406.19,432q-3.33-7.44-6.34-14.92t-5.56-14.84q-2.57-7.35-4.92-14t-4-12.05q-1.68-5.4-3.11-9.17-4.41-13.74-8.36-24.84t-7.55-20.42q-3.62-9.31-7.07-17.21t-6.89-15q-3.42-7-7-13.65t-7.18-13q-3.58-6.35-7.74-13.18c-2.77-4.57-5.74-9.43-8.9-14.52a32.65,32.65,0,0,0-4-6,12.92,12.92,0,0,0-3.21-2.75,1.83,1.83,0,0,0-2.25.05,4.9,4.9,0,0,0-1.31,2.2,15.12,15.12,0,0,0-.61,3.57,31.93,31.93,0,0,0,.09,4.92,47.81,47.81,0,0,0,.75,5.31q.49,2.55,1.19,5.23,3.12,11.07,6.53,20.86t7,18.62q3.62,8.83,7.26,16.63T340.38,319q3.78,7.27,7.73,14.36t8,14q4,6.94,7.95,13.95T372.08,376q3.56,6.93,7.46,14.12t7.63,14.44q3.72,7.24,7.33,14.24t6.74,13.68q3.13,6.7,5.61,12.73t4.3,11.66Q413,462.5,414,467.07a32.13,32.13,0,0,1,.79,8.4q-.22,15.5-3.42,24.73t-8,13.62a13.12,13.12,0,0,1-11,3.48q-6.15-.87-12.71-6.69a58.34,58.34,0,0,1-8.56-8.92,101.19,101.19,0,0,1-6.89-10.13,108.07,108.07,0,0,1-5.54-10.69c-1.65-3.68-3.11-7.36-4.35-11.05s-2.38-7.39-3.4-11.13-2-7.42-2.88-11.07-1.76-7.23-2.6-10.74-1.75-6.94-2.76-10.29q-7.12-24.31-13.35-44.09t-11.75-36q-5.52-16.17-10.42-29t-9.48-23.07q-4.58-10.21-8.84-18.05a132.45,132.45,0,0,0-8.59-13.89,106.62,106.62,0,0,0-8.65-10.68,104.87,104.87,0,0,0-8.94-8.53A173.49,173.49,0,0,1,248.51,230a90.89,90.89,0,0,1-9.68-12.15,53.29,53.29,0,0,1-5.51-10.69,30.27,30.27,0,0,1-1.89-9.42,22.2,22.2,0,0,1,1.44-8.53,26.29,26.29,0,0,1,4.38-7.39,30.34,30.34,0,0,1,6.93-6A40,40,0,0,1,253.62,171.53Z"/><path class="cls-2" d="M400.81,81.23a17.66,17.66,0,0,0,5.9,0,13.88,13.88,0,0,0,5-1.93A27.84,27.84,0,0,0,416,76l3.95-3.65c1.29-1.19,2.58-2.36,3.88-3.53a23.27,23.27,0,0,1,4-2.9,13,13,0,0,1,4.42-1.52,15.42,15.42,0,0,1,4.92.1c2,.6,4.08,1.29,6.22,2.06s4.26,1.49,6.33,2.12a19.68,19.68,0,0,0,5.88.95,7.58,7.58,0,0,0,4.67-1.42,86.14,86.14,0,0,1,6.75-5.6,60.55,60.55,0,0,1,8.41-5.22,52.55,52.55,0,0,1,9.22-3.63,19.73,19.73,0,0,1,9.63-.23,25,25,0,0,1,9.65,4.72c3.18,2.41,6.28,6.13,9.28,11.12A89.77,89.77,0,0,1,521.3,88a217.43,217.43,0,0,1,6.56,27.7,109.13,109.13,0,0,0,5.76,20.79q4.21,11.28,10.1,23.43t12.95,24.48q7.07,12.3,14.61,24.3t15,22.64Q593.64,242,600,250.86t11.44,15.65q5.1,6.83,8.15,10.95,3.26,4.49,6.68,9.72t6.91,10.92q3.5,5.7,6.77,11.74t6.16,11.81q2.86,5.78,5.18,11.39t3.85,10.52a60,60,0,0,1,2.19,9.24,18.94,18.94,0,0,1-.1,7.24,27.1,27.1,0,0,1-4.63,11.14,14.7,14.7,0,0,1-7.79,5.46c-3.08.88-6.64.6-10.71-.87s-8.62-4.3-13.67-8.45a36.12,36.12,0,0,1-3.34-4,74.34,74.34,0,0,1-4.22-6.29q-2.16-3.57-4.72-8.16t-5.34-10.05q-2.78-5.48-5.4-11.08t-5.07-11.57q-2.46-6-4.74-11.83c-1.52-3.91-2.89-7.67-4.1-11.25-2.69-8-6.27-17-10.76-27.05s-9.79-21.26-15.9-33.47q-9.19-18.54-20.87-40-11.73-21.85-25.24-45.8a23.17,23.17,0,0,0-4.05-5.32,16.67,16.67,0,0,0-4.56-3.5c-1.33-.6-2.17-.37-2.52.71s.29,3.49,1.89,7.24q4.56,10.24,8.36,19.52t7.25,17.71l6.75,16.58q3.31,8.1,6.49,15.68t6.6,15.18q3.44,7.6,7.34,15.5t8.62,16.3q4.74,8.4,10.09,17.19,5.56,9.13,12.11,19.18t12.84,20.41q6.29,10.37,11.85,21.16a179.6,179.6,0,0,1,9.6,21.94,35.27,35.27,0,0,1,2.15,8.59,22.28,22.28,0,0,1-.24,7.11,14.25,14.25,0,0,1-2.18,5.3,12.52,12.52,0,0,1-3.65,3.57,13.27,13.27,0,0,1-4.77,1.9,12,12,0,0,1-5.45-.22,21.2,21.2,0,0,1-5.79-2.58,26,26,0,0,1-5.59-4.8,65.08,65.08,0,0,1-7.37-9.22q-3.65-5.4-7.13-11.66t-6.86-13q-3.36-6.7-6.36-13.42t-5.57-13.25q-2.56-6.52-4.93-12.45t-4-10.72q-1.68-4.79-3.12-8.2Q534,277,530,266.94t-7.69-18.67q-3.69-8.61-7.25-16.08T508,217.88q-3.57-6.82-7.33-13.41t-7.54-13Q489.32,185,484.92,178t-9.47-15.16a46.38,46.38,0,0,0-4.31-6.45,22.4,22.4,0,0,0-3.48-3.5c-1-.77-1.83-1.05-2.46-.85a2.52,2.52,0,0,0-1.48,1.29A7.71,7.71,0,0,0,463,156a20,20,0,0,0,0,4.08,37.41,37.41,0,0,0,.75,4.66c.34,1.52.75,3.11,1.22,4.76q3.27,10.29,6.85,19.57t7.37,17.79q3.79,8.52,7.61,16.12t7.79,14.76q3.94,7.15,8.08,14.17T511,265.73q4.17,6.84,8.24,13.66t8.31,14.15q3.65,6.57,7.65,13.42t7.8,13.62q3.79,6.78,7.46,13.27t6.82,12.59q3.16,6.1,5.63,11.47t4.28,10.27a80.63,80.63,0,0,1,2.75,8.75,21,21,0,0,1,.67,6.85q-.51,12.29-4,19.06T558,412.23a15.29,15.29,0,0,1-11.53.72q-6.39-1.89-13.17-7.95a70,70,0,0,1-8.84-9.07,111.25,111.25,0,0,1-7.11-9.83A109.41,109.41,0,0,1,511.67,376q-2.54-5.13-4.44-10.16t-3.45-10.05q-1.54-5-2.9-9.9t-2.62-9.58q-1.26-4.69-2.79-9.26Q488.2,305,481.76,286.73t-12.21-33.56q-5.76-15.25-10.95-27.63t-10.09-22.62q-4.89-10.21-9.51-18.38t-9.34-15q-4.73-6.78-9.49-12.42t-9.89-10.84q-9-9.25-15.69-17.24a148.32,148.32,0,0,1-10.87-14.68,72.56,72.56,0,0,1-6.2-11.75,27.21,27.21,0,0,1-2.1-9.06,11.62,11.62,0,0,1,1.69-6.75,12.4,12.4,0,0,1,5-4.37,21.62,21.62,0,0,1,7.92-1.93A46.5,46.5,0,0,1,400.81,81.23Z"/><path class="cls-2" d="M565.07,47.05c1.91.2,4.16,1.34,6.76,3.44a66.91,66.91,0,0,1,8.16,8,97.43,97.43,0,0,1,8.3,11A119.12,119.12,0,0,1,595.47,82a65.83,65.83,0,0,1,3.07,7.35,48.46,48.46,0,0,1,1.94,7.19,33.29,33.29,0,0,1,.56,6.66,16.16,16.16,0,0,1-1.1,5.78,4.38,4.38,0,0,1-1.68,2.06,20.45,20.45,0,0,1-2.75,1.52,10,10,0,0,1-3.8.86,16.17,16.17,0,0,1-4.69-.48,27.12,27.12,0,0,1-5.29-1.94,28.46,28.46,0,0,1-6-4,54.46,54.46,0,0,1-6.29-6.38,77.6,77.6,0,0,1-6.44-9,98.08,98.08,0,0,1-7.71-16.58,44.76,44.76,0,0,1-2.84-14.53,15.74,15.74,0,0,1,3-10C557.5,48,560.7,46.78,565.07,47.05ZM640,188.24a48.67,48.67,0,0,0,1.89,6.46q1.36,3.83,3.43,8.36t4.71,9.67q2.64,5.13,5.54,10.39,4.15,7.81,8.83,15.54t9,14.1q4.37,6.39,8,11.17a72.48,72.48,0,0,0,6.15,7.22q2,1.86,5.12,5.33c2.07,2.3,4.22,4.88,6.45,7.7s4.49,5.84,6.77,9.07a114.22,114.22,0,0,1,6.23,9.75c1.48,2.55,2.84,5.13,4.06,7.72a39,39,0,0,1,2.71,7.43,28.63,28.63,0,0,1,.89,6.8,14.89,14.89,0,0,1-1.28,6.14,11.44,11.44,0,0,1-4.64,5.24,23.07,23.07,0,0,1-9.57,3.29,54,54,0,0,1-8.14.45,50.18,50.18,0,0,1-9.94-1.24,13.92,13.92,0,0,1-4-1.33,30.43,30.43,0,0,1-6-3.9,56.63,56.63,0,0,1-7.74-7.93A97,97,0,0,1,659.42,312q-3.27-5.52-6.76-12.84t-7.39-16.9q-1.77-4.65-3.17-9.5t-2.59-9.95q-1.2-5.09-2.39-10.36t-2.92-11.12q-1.69-6.15-4.12-12.91t-5.84-14.67q-3.42-7.95-8-17.13t-11.13-20.38c-1.37-2.4-2.9-4.9-4.59-7.47s-3.47-5.29-5.35-8.14-3.66-5.72-5.35-8.58-3.23-5.69-4.61-8.43c-.9-2-1.72-4-2.43-6a21.84,21.84,0,0,1-1.28-5.5,11.75,11.75,0,0,1,.44-4.59,8,8,0,0,1,2.37-3.6,13.16,13.16,0,0,1,6.23-2.76,16.59,16.59,0,0,1,8.72,1.35,43.48,43.48,0,0,1,8.27,4.33A67.64,67.64,0,0,1,617.4,135a37.68,37.68,0,0,1,7,8.74,88,88,0,0,1,6.35,12.71,155.68,155.68,0,0,1,5.16,15Q638.33,179.72,640,188.24Z"/><path class="cls-2" d="M779.34,312.73a12.94,12.94,0,0,1-7.81,3.76,24.63,24.63,0,0,1-9.55-.91,40.75,40.75,0,0,1-10.83-5.07,90.27,90.27,0,0,1-12.1-9.54q-4.93-4.58-10-10.25T718.87,278.2q-5.13-6.85-10.16-14.64T698.65,247q-7.21-12.87-14-27.1-6.78-14.4-12.62-29.48-3.18-8.41-7.37-18.26t-7.94-19.76Q653,142.54,650.09,133a85.07,85.07,0,0,1-3.53-17c-.14-2-.35-4-.61-5.93s-.47-3.75-.61-5.44-.22-3.29-.24-4.83a32,32,0,0,1,.22-4.35,14.4,14.4,0,0,1,1-3.91,21.27,21.27,0,0,1,2.06-3.69,20.55,20.55,0,0,1,3.17-3.54,24.25,24.25,0,0,1,4.64-3.16,8.7,8.7,0,0,1,2.84-.45,18.12,18.12,0,0,1,5.31.78A71.55,71.55,0,0,1,671.6,84a44.13,44.13,0,0,1,8.73,4.93c1.69,1.16,3.43,2.44,5.23,3.86s3.6,3,5.38,4.66,3.54,3.51,5.26,5.44a72.83,72.83,0,0,1,4.93,6.24c1.58,2.23,3.12,4.56,4.62,7a75.71,75.71,0,0,1,4.14,7.65q1.88,4,3.47,8.48a88.89,88.89,0,0,1,2.72,9.28,6.39,6.39,0,0,1,.29,3.49,8.09,8.09,0,0,1-1.09,2.38,3,3,0,0,1-2.2,1.3,16.16,16.16,0,0,1-3.15.15,21.77,21.77,0,0,1-3.58-.52,22.46,22.46,0,0,1-4-1.34,27.1,27.1,0,0,1-4.11-2.18,34.14,34.14,0,0,1-3.77-2.76,32.1,32.1,0,0,0-7-5q-2.57-1.17-3.72-.21c-.78.65-1.07,1.9-.9,3.76a41.12,41.12,0,0,0,1.31,6.69,84.46,84.46,0,0,0,2.88,8.62q1.83,4.69,3.82,9.53T695,175q2.15,4.8,3.85,8.72,2,4.58,4.67,9.52t5.4,9.52q2.77,4.59,5.77,8.87a93.11,93.11,0,0,0,5.91,7.62,51.76,51.76,0,0,0,5.63,5.65,15.1,15.1,0,0,0,4.88,3,5.15,5.15,0,0,0,3.91-.13q1.77-.83,2.65-3.78a20.17,20.17,0,0,0,1-7.23c0-2.89-.11-5.59-.16-8.12a31.32,31.32,0,0,1,.39-6.36c.31-1.71,1.14-2.43,2.48-2.17a22.37,22.37,0,0,1,7.17,3.53,60,60,0,0,1,7.92,6.78,99.91,99.91,0,0,1,8.22,9.43q4.14,5.31,8.13,11.28,6.88,10.29,11.71,18.25c3.23,5.27,5.9,10,8,14.14a70.59,70.59,0,0,1,4.72,11.11,30.94,30.94,0,0,1,1.55,8.78,18.3,18.3,0,0,1-1.15,7.5,31.24,31.24,0,0,1-3.81,6.82,49,49,0,0,1-6.2,7C785.2,307.2,782.42,309.83,779.34,312.73Z"/><path class="cls-2" d="M797.4,190.08a19.52,19.52,0,0,0,1.27,3.45c.58,1.26,1.2,2.53,1.84,3.81s1.33,2.6,2.07,4,1.44,2.73,2.12,4.07a31,31,0,0,0,3.46,5.06,13.34,13.34,0,0,0,3.19,2.95c.88.49,1.52.5,1.94.05s.41-1.53,0-3.21a20.18,20.18,0,0,0-1.1-5c-.67-2.06-1.23-4-1.66-5.76a15.93,15.93,0,0,1-.58-4.47c.05-1.21.78-1.61,2.18-1.2.35.08,1.09.28,2.2.6s2.42.77,4,1.35a45.55,45.55,0,0,1,5,2.28,34.72,34.72,0,0,1,5.4,3.55,66.79,66.79,0,0,1,5,4.61,56,56,0,0,1,5.08,5.93,46.73,46.73,0,0,1,4.12,6.6,20.08,20.08,0,0,1,2.18,6.59,5,5,0,0,1-.49,3.45,5.12,5.12,0,0,1-2.07,1.79,22.55,22.55,0,0,1-2.69,1.1,8,8,0,0,0-2.52,1.42,2.69,2.69,0,0,0-.69,2.48A13.41,13.41,0,0,0,838,240a42.85,42.85,0,0,0,3.68,5.82q2.34,3.17,5.53,6.76,3.62,3.94,7.24,7.83l7.32,7.76q3.69,3.89,7.15,7.67t6.78,7.52q1.72,1.91,3.81,4.5t4.27,5.35c1.44,1.84,2.92,3.75,4.43,5.71l4.55,5.94q2.88,3.63,5.65,7.35t5,7q2.22,3.28,3.82,6.21a23.9,23.9,0,0,1,2.23,5.28,3.28,3.28,0,0,1-2.77,2.86c-1.59.34-3.83,0-6.77-1a29.64,29.64,0,0,0-3.52-1.05,20.18,20.18,0,0,1-3.89-1.37,36,36,0,0,1-5.26-3.1,69.41,69.41,0,0,1-7.41-6.15,52.43,52.43,0,0,1-4.43-5.05q-2.14-2.79-4.21-5.95c-1.38-2.13-2.77-4.35-4.16-6.68s-2.83-4.75-4.31-7.27l-4.49-7.69q-2.28-3.93-4.83-7.89T848,272.42q-2.84-4-6.16-7.91-2-2.43-3.46-4.19t-2.49-2.94a7.24,7.24,0,0,0-1.64-1.51c-.41-.23-.7-.21-.88,0,1.81,3.08,2.71,6.28,4.77,9.39s3.83,6,5.88,9,3.84,6.36,6,9.39,15.18,24.85,17.54,29.74c1.48,3.06,2.9,10,1.68,10.06a18.43,18.43,0,0,1-4.06-.41c-1.48-.31-3.06-.7-4.74-1.18a41.86,41.86,0,0,1-5.28-1.93c-1.84-.82-3.73-1.76-5.64-2.85a59.34,59.34,0,0,1-5.9-3.87,62.76,62.76,0,0,1-8.18-7.21,71.94,71.94,0,0,1-7.44-9.46,103.5,103.5,0,0,1-7-12.47q-3.35-7.08-6.63-15.89-1.76-4.65-4-9.64t-4.65-10.29Q803.4,243,801,237.6t-4.54-10.68c-1.57-3.95-3.24-8-5-12.21s-3.81-8.61-6.07-13.19q-4.62-9.08-10.79-19.35c-4.12-6.95-9.07-14.48-14.93-22.62a159.13,159.13,0,0,1-11.11-17.08,78.17,78.17,0,0,1-5.83-13c-1.15-3.64-1.5-6.47-1.06-8.45a5.57,5.57,0,0,1,2.81-4q2.3-.77,5.91.51a32,32,0,0,1,7.9,4.49,73.67,73.67,0,0,1,8.95,8,94.92,94.92,0,0,1,9.07,11,113.42,113.42,0,0,1,6.86,10.56,109.57,109.57,0,0,1,6,11.85q1.27,2.91,2.38,6c.74,2.06,1.4,4.16,2,6.32s1.19,4.41,1.84,6.77Z"/><path class="cls-2" d="M127.88,626.52s38,1.55,74.13-19.66a236.2,236.2,0,0,0,42-31.83c10.77-10.19,17.15-25.78,17.17-38.68.07-40.42-3.27-128.15-32.05-162.76"/><path class="cls-1" d="M108.24,512.53"/><path class="cls-5" d="M967.71,483"/></g></svg>